HIERARCHY
ROOT Hips
{
     OFFSET 1.88212 96.90440 -13.34250
     CHANNELS 6 Xposition Yposition Zposition Zrotation Xrotation Yrotation
     JOINT Spine
     {
          OFFSET 0.00000 11.89050 0.00000
          CHANNELS 3 Zrotation Xrotation Yrotation
          JOINT Spine1
          {
               OFFSET -0.00000 25.65740 0.12766
               CHANNELS 3 Zrotation Xrotation Yrotation
               JOINT HEad
               {
                    OFFSET 0.00000 8.73416 0.01134
                    CHANNELS 3 Zrotation Xrotation Yrotation
                    End Site
                    {
                         OFFSET -0.29000 12.77420 2.51395
                    }
               }
               JOINT LeftShoulder1
               {
                    OFFSET 8.99000 -0.36225 -0.22000
                    CHANNELS 3 Zrotation Xrotation Yrotation
                    JOINT LeftArm
                    {
                         OFFSET 10.28270 -0.00338 0.32212
                         CHANNELS 3 Zrotation Xrotation Yrotation
                         JOINT LeftForeArm
                         {
                              OFFSET 32.76690 0.09914 -1.42434
                              CHANNELS 3 Zrotation Xrotation Yrotation
                              JOINT LeftHand
                              {
                                   OFFSET 27.56430 0.08536 1.02216
                                   CHANNELS 3 Zrotation Xrotation Yrotation
                                   End Site
                                   {
                                        OFFSET 16.74430 -0.60000 1.50291
                                   }
                              }
                         }
                    }
               }
               JOINT RightShoulder
               {
                    OFFSET -8.99000 -0.36225 -0.22000
                    CHANNELS 3 Zrotation Xrotation Yrotation
                    JOINT RightArm
                    {
                         OFFSET -10.28270 -0.00338 0.32212
                         CHANNELS 3 Zrotation Xrotation Yrotation
                         JOINT RightForeArm
                         {
                              OFFSET -32.89710 0.09914 -1.42434
                              CHANNELS 3 Zrotation Xrotation Yrotation
                              JOINT RightHand
                              {
                                   OFFSET -27.49210 0.08536 1.02216
                                   CHANNELS 3 Zrotation Xrotation Yrotation
                                   End Site
                                   {
                                        OFFSET -16.63120 -0.60000 1.50291
                                   }
                              }
                         }
                    }
               }
          }
     }
     JOINT LeftUpLeg
     {
          OFFSET 8.94580 -8.66707 0.10165
          CHANNELS 3 Zrotation Xrotation Yrotation
          JOINT LeftLeg
          {
               OFFSET 0.00000 -44.42270 1.37270
               CHANNELS 3 Zrotation Xrotation Yrotation
               JOINT LeftFoot
               {
                    OFFSET -0.25355 -42.09240 -1.46059
                    CHANNELS 3 Zrotation Xrotation Yrotation
                    JOINT LeftToes
                    {
                         OFFSET -0.04000 -4.41509 8.49910
                         CHANNELS 3 Zrotation Xrotation Yrotation
                         End Site
                         {
                              OFFSET 0.08000 -0.04745 9.77979
                         }
                    }
               }
          }
     }
     JOINT RightUpLeg
     {
          OFFSET -8.94580 -8.66707 0.10165
          CHANNELS 3 Zrotation Xrotation Yrotation
          JOINT RightLeg
          {
               OFFSET 0.00000 -44.42270 1.37270
               CHANNELS 3 Zrotation Xrotation Yrotation
               JOINT RightFoot
               {
                    OFFSET 0.25355 -42.09240 -1.46059
                    CHANNELS 3 Zrotation Xrotation Yrotation
                    JOINT RightToes
                    {
                         OFFSET 0.04000 -4.41509 8.49910
                         CHANNELS 3 Zrotation Xrotation Yrotation
                         End Site
                         {
                              OFFSET -0.08000 -0.13745 9.77979
                         }
                    }
               }
          }
     }
}
MOTION
Frames: 17
Frame Time: 0.01667
44.03187 76.73119 -121.42066 -2.35554 2.25731 -21.39198 -5.68438 10.41072 8.41311 0.00271 0.00342 0.00186 -5.59996 10.02762 18.04492 -1.93184 5.29863 6.29671 -89.15426 -12.14386 -90.23891 -0.15688 35.83352 -100.76566 35.46581 3.59367 -16.14875 33.32888 11.45795 10.43488 56.60053 -8.35386 72.03926 4.89482 38.31520 110.24873 -33.09292 10.90160 -7.37049 21.86538 -47.87726 14.43743 -4.50565 71.81964 12.47320 7.17897 -0.00392 0.00257 -5.81569 -13.74016 -3.01917 -17.81216 -3.36507 2.86235 22.75525 53.37024 -19.93163 39.62016 0.02216 0.03928 -19.23275 -45.64019 21.10651 
43.90579 75.70714 -121.61476 -2.32902 1.83157 -21.34041 -5.95915 11.08338 8.67763 0.00248 0.00332 0.00127 -5.45321 9.92277 17.64110 -1.99208 5.09103 5.86002 -89.31292 -11.91780 -90.07140 0.22884 35.97810 -101.39530 35.52311 3.69027 -16.02451 33.58063 11.05786 10.04512 56.15289 -8.16294 71.51314 4.34535 38.22032 110.92504 -33.13295 10.95971 -7.42727 22.11751 -48.77671 14.50739 -4.50622 73.88862 12.55811 7.49971 -0.00383 0.00284 -6.38014 -14.41157 -3.15239 -18.26401 -4.18256 2.56758 24.15988 56.44530 -20.84457 42.70402 0.03142 0.04465 -21.90375 -47.61582 21.62530 
43.76065 74.64070 -121.81651 -2.27643 1.38894 -21.25322 -6.25557 11.73386 8.91070 0.00199 0.00326 0.00093 -5.33523 9.87961 17.24048 -2.01113 4.90828 5.44434 -89.48057 -11.66442 -89.96712 0.56735 36.08801 -101.92244 35.65564 3.73620 -15.96450 33.78212 10.68040 9.68655 55.71083 -7.97779 71.05257 3.82791 38.04675 111.53090 -33.14489 10.98698 -7.60018 22.40047 -49.80651 14.67196 -4.28723 76.15084 12.36781 7.83951 -0.00349 0.00310 -7.00640 -15.14955 -3.28126 -18.68282 -5.05189 2.25673 25.76959 59.71124 -22.07090 46.00680 0.04070 0.04732 -24.55774 -49.65031 22.35333 
43.59732 73.56541 -122.01737 -2.20017 0.94595 -21.13663 -6.56518 12.35059 9.11404 0.00146 0.00323 0.00071 -5.24634 9.88838 16.84766 -1.99491 4.74625 5.05514 -89.64953 -11.40293 -89.92265 0.84898 36.17666 -102.33757 35.62590 3.84420 -15.83389 33.93452 10.32770 9.36406 55.28027 -7.79310 70.66933 3.36560 37.81085 112.04072 -33.06153 10.99820 -7.75212 22.70600 -50.91375 14.92384 -3.75705 78.49879 11.81540 8.21597 -0.00292 0.00332 -7.71135 -15.89980 -3.39430 -19.05303 -5.93122 1.93859 27.59416 63.02089 -23.63034 49.50155 0.04857 0.04663 -27.19967 -51.69628 23.24008 
43.39460 72.51318 -122.19885 -2.09757 0.51871 -20.99338 -6.88420 12.91977 9.29039 0.00101 0.00328 0.00091 -5.18888 9.93935 16.46286 -1.96225 4.58865 4.71431 -89.79476 -11.12742 -89.90306 1.08639 36.26271 -102.66821 35.60004 3.94228 -15.68843 34.05084 10.00512 9.10973 54.82359 -7.61860 70.33662 2.97174 37.50923 112.42670 -32.89093 10.96976 -8.02843 23.03253 -52.03722 15.26330 -2.70682 80.81981 10.68704 8.63924 -0.00222 0.00347 -8.60224 -16.61831 -3.54157 -19.35615 -6.76643 1.62333 29.62353 66.22028 -25.52678 53.14809 0.05389 0.04272 -29.77554 -53.62923 24.32174 
43.18190 71.51886 -122.36522 -1.97102 0.12109 -20.82823 -7.20347 13.43225 9.44243 0.00049 0.00326 0.00100 -5.16218 10.02302 16.08878 -1.89762 4.43793 4.40800 -89.93591 -10.86228 -89.90824 1.27690 36.33404 -102.91343 35.54058 4.06618 -15.53623 34.12917 9.70541 8.90841 54.36153 -7.44275 70.06627 2.66199 37.16335 112.67674 -32.79034 10.94549 -8.15073 23.36509 -53.12491 15.67421 -0.71898 83.00742 8.57563 9.11797 -0.00149 0.00347 -9.52775 -17.26704 -3.69005 -19.58408 -7.51422 1.31872 31.82539 69.17501 -27.72418 56.89933 0.05571 0.03610 -32.33360 -55.43718 25.45547 
42.95960 70.60866 -122.50913 -1.82186 -0.23381 -20.64482 -7.51466 13.87964 9.57235 -0.00004 0.00326 0.00116 -5.16528 10.12940 15.72710 -1.80610 4.29161 4.13793 -90.07383 -10.61531 -89.93630 1.42275 36.38712 -103.07484 35.46540 4.18487 -15.40127 34.16568 9.42802 8.75910 53.91441 -7.27131 69.86338 2.43717 36.79449 112.78999 -32.65554 10.90650 -8.31771 23.68612 -54.13348 16.13648 3.05507 84.96405 4.64391 9.65901 -0.00085 0.00331 -10.51338 -17.81534 -3.85335 -19.73370 -8.14051 1.03025 34.10351 71.78133 -30.11971 60.71257 0.05389 0.02793 -34.86428 -57.02844 26.62899 
42.70648 69.84767 -122.60292 -1.64723 -0.53007 -20.43669 -7.81247 14.25211 9.67935 -0.00075 0.00344 0.00189 -5.19755 10.24477 15.37813 -1.70222 4.13719 3.93229 -90.19196 -10.37290 -89.97963 1.52915 36.41354 -103.13646 35.32682 4.35739 -15.30646 34.11028 9.18057 8.70758 53.53258 -7.13978 69.72742 2.28335 36.40964 112.77721 -32.51578 10.85936 -8.38725 23.96581 -55.01083 16.61485 7.51918 90.00000 0.00000 10.26482 -0.00028 0.00294 -11.49908 -18.22969 -4.03494 -19.79547 -8.60476 0.76080 36.24052 73.93912 -32.49617 64.54317 0.04844 0.01920 -37.32341 -58.30904 27.82120 
42.44923 69.20391 -122.66894 -1.45322 -0.76068 -20.20470 -8.08935 14.54985 9.76341 -0.00141 0.00348 0.00203 -5.25694 10.35972 15.04618 -1.59202 3.99261 3.74590 -90.29205 -10.18044 -90.06180 1.57608 36.41051 -103.09541 35.24538 4.38903 -15.25624 33.98108 8.95029 8.69122 53.21994 -7.00096 69.67731 2.16904 36.02708 112.68291 -32.37980 10.87818 -8.50075 24.18551 -55.73545 17.07915 7.32582 90.00000 0.00000 10.93141 0.00011 0.00242 -12.43316 -18.54575 -4.19570 -19.77111 -8.89668 0.51356 37.96888 75.62013 -34.57088 68.35850 0.04051 0.01132 -39.80777 -59.28364 28.94876 
42.18537 68.69785 -122.70018 -1.24316 -0.92192 -19.95046 -8.34263 14.77425 9.82541 -0.00199 0.00347 0.00209 -5.34091 10.46602 14.73268 -1.48674 3.85799 3.58121 -90.36600 -10.03509 -90.18102 1.54816 36.37927 -102.95380 35.11612 4.44022 -15.22922 33.78486 8.73876 8.70173 52.98231 -6.85582 69.70337 2.06141 35.65093 112.54855 -32.22748 10.90880 -8.61166 24.32917 -56.29544 17.50505 7.11865 90.00000 0.00000 11.65235 0.00026 0.00182 -13.30152 -18.73248 -4.34169 -19.66753 -9.02195 0.29126 39.00354 76.83435 -36.04208 72.14094 0.03137 0.00505 -42.32757 -59.94373 29.98672 
41.88624 68.40623 -122.66570 -1.02078 -1.01014 -19.67041 -8.57209 14.92712 9.87020 -0.00269 0.00362 0.00274 -5.44727 10.55408 14.43449 -1.38407 3.73084 3.48149 -90.41724 -9.91151 -90.34162 1.40389 36.30991 -102.67440 34.96991 4.44183 -15.26080 33.47847 8.56786 8.79520 52.86013 -6.75094 69.79517 1.93028 35.28057 112.39793 -31.97394 10.94634 -8.80052 24.37591 -56.65930 17.86711 6.93088 90.00000 0.00000 12.42461 0.00012 0.00105 -13.81088 -18.71395 -4.36835 -19.47386 -8.96441 0.10116 39.01916 77.55990 -36.58513 75.87098 0.02134 0.00021 -44.87019 -60.20203 30.97744 
41.58428 68.25008 -122.59706 -0.79720 -1.02994 -19.36699 -8.77083 15.01728 9.90017 -0.00294 0.00353 0.00278 -5.57378 10.62169 14.15318 -1.28542 3.60999 3.39411 -90.45410 -9.84916 -90.52581 1.17424 36.22814 -102.30541 34.81679 4.41710 -15.38352 33.17974 8.40806 8.89051 52.74833 -6.63203 69.93425 1.79570 34.94552 112.23421 -31.82952 10.95319 -8.93490 24.33057 -56.83769 18.15944 6.79082 90.00000 0.00000 13.24469 -0.00031 0.00037 -14.17303 -18.61651 -4.35146 -19.19790 -8.74083 -0.05577 37.97142 77.83194 -36.13834 79.54016 0.01173 -0.00282 -47.64268 -60.21020 31.65873 
41.27790 68.23335 -122.49364 -0.57602 -0.98768 -19.04453 -8.93946 15.05223 9.91930 -0.00300 0.00345 0.00278 -5.71723 10.66697 13.88886 -1.20530 3.49642 3.31848 -90.46918 -9.83822 -90.71543 0.89094 36.14606 -101.88590 34.67144 4.37841 -15.53399 32.91404 8.26117 8.97513 52.62498 -6.51009 70.10210 1.67963 34.66169 112.05363 -31.66610 10.94008 -9.07507 24.20685 -56.85007 18.39364 6.72642 90.00000 0.00000 14.11618 -0.00116 -0.00019 -14.28723 -18.39762 -4.22834 -18.85519 -8.37934 -0.17792 36.06583 77.69871 -34.88898 83.15402 0.00329 -0.00419 -50.55251 -59.93773 32.14025 
40.93930 68.41275 -122.34305 -0.33944 -0.85091 -18.70060 -9.08568 15.00180 9.92698 -0.00309 0.00376 0.00336 -5.87534 10.68391 13.64066 -1.15089 3.41022 3.29755 -90.46150 -9.84954 -90.92526 0.56449 36.05705 -101.41015 34.50246 4.41055 -15.72653 32.63924 8.16483 9.08294 52.50834 -6.43389 70.30464 1.61624 34.44388 111.83009 -31.54988 10.82346 -9.20400 24.05460 -56.73520 18.63855 6.80000 90.00000 0.00000 15.07830 -0.00295 -0.00092 -14.14985 -17.81975 -3.62911 -18.45107 -7.93506 -0.27554 33.60233 77.17530 -33.13361 86.71378 -0.00436 -0.00436 -53.54952 -59.29701 32.47114 
40.60227 68.69688 -122.17429 -0.09256 -0.63715 -18.33737 -9.21221 14.88627 9.92521 -0.00294 0.00386 0.00327 -6.04693 10.67288 13.41075 -1.11989 3.34817 3.27238 -90.43500 -9.91809 -91.13216 0.23074 35.97342 -100.93670 34.38087 4.31806 -15.95946 32.37430 8.08383 9.16192 52.37768 -6.35115 70.51151 1.57746 34.28971 111.60303 -31.49921 10.86964 -9.34791 23.90064 -56.52076 18.92037 7.01818 90.00000 0.00000 16.13439 -0.00524 -0.00105 -14.38125 -17.05971 -3.17610 -18.00407 -7.43783 -0.35044 30.97069 76.32363 -31.24013 90.22966 -0.01072 -0.00331 -56.75998 -58.53579 32.57134 
40.27031 69.08580 -121.99431 0.17109 -0.35945 -17.95246 -9.32806 14.71984 9.91032 -0.00268 0.00400 0.00311 -6.23147 10.63362 13.19739 -1.11572 3.31341 3.24498 -90.38944 -10.02134 -91.32408 -0.08615 35.90035 -100.50212 34.25946 4.27129 -16.18642 32.12177 8.02285 9.20970 52.22496 -6.26547 70.70223 1.53175 34.18182 111.40205 -31.49830 10.87996 -9.50773 23.96725 -56.20391 19.44159 9.10077 90.00000 0.00000 18.55129 -0.05793 -0.00492 -15.55731 -15.75092 -4.53971 -17.58929 -6.93169 -0.41856 29.76099 75.03322 -30.69891 90.03493 -0.00146 -0.00074 -56.80969 -57.60487 32.50066 
39.92670 69.63663 -121.79688 0.46903 -0.02243 -17.52229 -9.44293 14.51955 9.86623 -0.00225 0.00479 0.00366 -6.43168 10.55761 12.99018 -1.11949 3.34405 3.26426 -90.34727 -10.10153 -91.54148 -0.38638 35.83628 -100.09502 34.16193 4.18780 -16.41239 31.84570 8.04030 9.27450 52.06814 -6.23246 70.89024 1.44124 34.10229 111.22771 -31.47247 10.95754 -9.75223 24.40791 -55.76707 20.36647 -8.11835 85.40734 20.60577 21.93136 -0.13128 0.02388 -21.92383 -5.06076 6.17235 -17.22351 -6.44435 -0.49957 28.04758 73.64207 -29.62748 90.00220 -0.00149 -0.00026 -56.97499 -56.49913 32.32194 
